<svg data-v-423bf9ae="" xmlns="http://www.w3.org/2000/svg" viewBox="0 0 185.11025671243456 60" class="font"><!----><!----><defs data-v-423bf9ae=""><linearGradient data-v-423bf9ae="" gradientTransform="rotate(25)" id="5fbb0516-e286-4608-a59f-ad0946469400" x1="0%" y1="0%" x2="100%" y2="0%"><stop data-v-423bf9ae="" offset="0%" style="stop-color: rgb(60, 17, 67); stop-opacity: 1;"></stop><stop data-v-423bf9ae="" offset="100%" style="stop-color: rgb(194, 81, 120); stop-opacity: 1;"></stop></linearGradient></defs><g data-v-423bf9ae="" id="0c1e94a5-e64b-4d8a-8e39-56f96a5d601c" fill="url(#5fbb0516-e286-4608-a59f-ad0946469400)" transform="matrix(4.562737444044159,0,0,4.562737444044159,-0.6387847999699119,-16.152089901024546)"><path d="M9.94 9.23L9.94 9.23L9.94 9.23Q10.01 9.23 10.01 9.38L10.01 9.38L10.01 9.38Q10.01 9.53 10.00 9.69L10.00 9.69L10.00 9.69Q9.77 12.35 8.67 13.58L8.67 13.58L8.67 13.58Q8.30 13.99 7.48 14.01L7.48 14.01L7.48 14.01Q6.47 13.65 6.47 12.24L6.47 12.24L6.47 12.24Q6.47 11.98 6.52 11.60L6.52 11.60L6.52 11.60Q6.58 11.21 7.46 6.17L7.46 6.17L7.46 6.17Q6.23 8.67 5.88 12.25L5.88 12.25L5.88 12.25Q5.84 12.67 5.81 12.88L5.81 12.88L5.81 12.88Q5.75 13.33 5.43 13.33L5.43 13.33L5.43 13.33Q5.00 13.33 4.51 12.67L4.51 12.67L4.51 12.67Q4.34 12.45 4.34 12.11L4.34 12.11L4.34 12.11Q4.34 11.77 4.36 11.37L4.36 11.37L4.36 11.37Q4.38 10.96 4.44 10.47L4.44 10.47L4.44 10.47Q4.49 9.98 4.52 9.69L4.52 9.69L4.52 9.69Q4.55 9.39 4.66 8.79L4.66 8.79L4.66 8.79Q4.76 8.19 4.79 8.02L4.79 8.02L4.79 8.02Q4.82 7.84 4.95 7.13L4.95 7.13L4.95 7.13Q5.08 6.41 5.10 6.33L5.10 6.33L5.10 6.33Q4.89 6.54 4.73 6.96L4.73 6.96L4.73 6.96Q4.56 7.38 4.47 7.64L4.47 7.64L4.47 7.64Q4.37 7.90 4.27 8.26L4.27 8.26L4.27 8.26Q4.17 8.62 4.10 8.89L4.10 8.89L4.10 8.89Q4.03 9.16 3.94 9.53L3.94 9.53L3.94 9.53Q3.85 9.91 3.81 10.11L3.81 10.11L3.81 10.11Q3.71 10.47 3.49 11.47L3.49 11.47L3.49 11.47Q3.26 12.46 3.20 12.72L3.20 12.72L3.20 12.72Q3.14 12.98 3.10 13.14L3.10 13.14L3.10 13.14Q3.07 13.30 3.04 13.36L3.04 13.36L3.04 13.36Q3.02 13.43 2.97 13.54L2.97 13.54L2.97 13.54Q2.86 13.73 2.61 13.73L2.61 13.73L2.61 13.73Q2.37 13.73 2.19 13.56L2.19 13.56L2.19 13.56Q2.02 13.38 1.96 13.25L1.96 13.25L1.96 13.25Q1.90 13.12 1.81 12.87L1.81 12.87L1.81 12.87Q1.72 12.63 1.72 12.49L1.72 12.49L1.72 12.49Q1.72 12.35 1.81 12.00L1.81 12.00L1.81 12.00Q1.89 11.65 2.01 11.13L2.01 11.13L2.01 11.13Q2.13 10.61 2.16 10.46L2.16 10.46L2.16 10.46Q2.20 10.32 2.30 9.84L2.30 9.84L2.30 9.84Q2.41 9.37 2.45 9.17L2.45 9.17L2.45 9.17Q2.49 8.97 2.58 8.55L2.58 8.55L2.58 8.55Q2.66 8.12 2.70 7.88L2.70 7.88L2.70 7.88Q2.74 7.63 2.81 7.25L2.81 7.25L2.81 7.25Q2.88 6.86 2.93 6.57L2.93 6.57L2.93 6.57Q3.07 5.64 3.09 5.28L3.09 5.28L3.09 5.18L3.09 5.18Q3.09 4.93 2.98 4.93L2.98 4.93L2.98 4.93Q2.87 4.93 2.62 5.32L2.62 5.32L2.62 5.32Q2.37 5.71 2.27 5.92L2.27 5.92L2.27 5.92Q2.17 6.13 2.13 6.50L2.13 6.50L2.13 6.50Q1.93 8.44 1.12 9.66L1.12 9.66L1.12 9.66Q1.02 9.80 0.81 9.80L0.81 9.80L0.81 9.80Q0.60 9.80 0.37 9.58L0.37 9.58L0.37 9.58Q0.14 9.35 0.14 9.11L0.14 9.11L0.14 9.11Q0.14 7.69 1.11 5.81L1.11 5.81L1.11 5.81Q1.48 5.10 1.72 3.70L1.72 3.70L1.72 3.70Q2.10 4.26 2.19 4.44L2.19 4.44L2.19 4.44Q2.28 4.62 2.39 4.62L2.39 4.62L2.39 4.62Q2.45 4.62 2.65 4.45L2.65 4.45L2.65 4.45Q2.84 4.28 3.23 4.28L3.23 4.28L3.23 4.28Q3.61 4.28 3.85 4.48L3.85 4.48L3.85 4.48Q4.09 4.68 4.15 4.93L4.15 4.93L4.15 4.93Q4.21 5.18 4.24 5.68L4.24 5.68L4.24 5.68Q4.33 5.61 4.54 5.42L4.54 5.42L4.54 5.42Q4.98 5.03 5.33 5.03L5.33 5.03L5.33 5.03Q5.67 5.03 5.94 5.40L5.94 5.40L5.94 5.40Q6.22 5.77 6.19 6.16L6.19 6.16L6.19 6.16Q6.36 5.96 6.80 5.19L6.80 5.19L6.80 5.19Q7.13 4.69 7.66 4.69L7.66 4.69L7.66 4.69Q8.54 4.69 8.54 5.49L8.54 5.49L8.54 5.49Q8.54 5.85 8.20 7.50L8.20 7.50L8.20 7.50Q7.87 9.16 7.71 10.23L7.71 10.23L7.71 10.23Q7.56 11.30 7.56 12.25L7.56 12.25L7.56 12.52L7.56 12.52Q8.02 12.12 8.46 11.53L8.46 11.53L8.46 11.53Q8.90 10.93 9.11 10.58L9.11 10.58L9.11 10.58Q9.32 10.22 9.77 9.42L9.77 9.42L9.77 9.42Q9.90 9.23 9.94 9.23ZM12.88 4.10L12.88 4.10L12.88 4.10Q12.88 4.56 12.49 5.38L12.49 5.38L12.49 5.38Q12.10 6.20 11.75 6.57L11.75 6.57L11.75 6.57Q11.69 6.65 11.58 6.65L11.58 6.65L11.58 6.65Q11.23 6.65 11.23 6.09L11.23 6.09L11.23 6.09Q11.23 5.53 11.72 4.52L11.72 4.52L11.72 4.52Q11.82 4.31 11.84 4.09L11.84 4.09L11.84 4.09Q11.87 3.86 11.88 3.83L11.88 3.83L11.88 3.83Q11.89 3.79 11.89 3.77L11.89 3.77L11.89 3.77Q11.90 3.75 11.91 3.72L11.91 3.72L11.91 3.72Q11.91 3.68 11.92 3.66L11.92 3.66L11.92 3.66Q11.93 3.64 11.94 3.62L11.94 3.62L11.94 3.62Q11.96 3.60 11.97 3.58L11.97 3.58L11.97 3.58Q12.01 3.56 12.19 3.56L12.19 3.56L12.19 3.56Q12.38 3.56 12.63 3.71L12.63 3.71L12.63 3.71Q12.88 3.86 12.88 4.10ZM13.02 10.32L13.02 10.32L13.02 10.32Q13.17 10.08 13.24 10.08L13.24 10.08L13.24 10.08Q13.30 10.08 13.34 10.43L13.34 10.43L13.34 10.43Q13.37 10.78 13.37 11.36L13.37 11.36L13.37 11.36Q13.37 11.94 13.10 12.61L13.10 12.61L13.10 12.61Q12.82 13.27 12.31 13.68L12.31 13.68L12.31 13.68Q12.01 13.90 11.77 13.90L11.77 13.90L11.77 13.90Q11.52 13.90 11.36 13.80L11.36 13.80L11.36 13.80Q11.20 13.69 11.07 13.45L11.07 13.45L11.07 13.45Q10.86 13.12 10.66 12.59L10.66 12.59L10.66 12.59Q10.46 12.05 10.46 11.44L10.46 11.44L10.46 11.44Q10.46 10.82 10.56 10.19L10.56 10.19L10.56 10.19Q10.65 9.56 10.65 9.34L10.65 9.34L10.65 9.34Q10.65 9.13 10.43 8.79L10.43 8.79L10.43 8.79Q10.21 8.44 10.21 8.37L10.21 8.37L10.21 8.37Q10.21 8.30 10.25 8.22L10.25 8.22L10.25 8.22Q10.30 8.15 10.38 8.07L10.38 8.07L10.38 8.07Q10.46 7.99 10.54 7.94L10.54 7.94L10.54 7.94Q10.61 7.88 10.71 7.80L10.71 7.80L10.71 7.80Q11.03 7.53 11.30 7.53L11.30 7.53L11.30 7.53Q11.56 7.53 11.77 7.71L11.77 7.71L11.77 7.71Q11.97 7.90 11.96 8.34L11.96 8.34L11.96 8.34Q11.96 8.79 11.75 10.04L11.75 10.04L11.75 10.04Q11.48 11.63 11.48 11.87L11.48 11.87L11.48 11.87Q11.48 12.11 11.61 12.11L11.61 12.11L11.61 12.11Q11.89 12.11 13.02 10.32ZM14 10.33L14 10.33L14.01 10.09L14.01 10.09Q14.01 9.73 13.80 9.48L13.80 9.48L13.80 9.48Q13.58 9.24 13.58 9.17L13.58 9.17L13.58 9.17Q13.58 9.10 13.67 9.06L13.67 9.06L13.67 9.06Q13.76 9.02 13.87 9.00L13.87 9.00L13.87 9.00Q13.99 8.97 14.10 8.83L14.10 8.83L14.10 8.83Q14.21 8.68 14.28 8.20L14.28 8.20L14.28 8.20Q14.35 7.73 14.35 7.52L14.35 7.52L14.35 7.52Q14.35 7.32 14.48 7.32L14.48 7.32L14.48 7.32Q14.60 7.32 14.70 7.41L14.70 7.41L14.70 7.41Q14.80 7.49 14.85 7.57L14.85 7.57L14.85 7.57Q14.90 7.64 14.97 7.80L14.97 7.80L14.97 7.80Q15.04 7.95 15.06 7.99L15.06 7.99L15.06 7.99Q15.53 7.84 15.83 7.84L15.83 7.84L15.83 7.84Q16.63 7.84 17.21 8.62L17.21 8.62L17.21 8.62Q17.79 9.39 17.79 10.21L17.79 10.21L17.79 10.21Q17.79 10.50 17.72 10.88L17.72 10.88L17.72 10.88Q17.29 12.75 16.38 13.45L16.38 13.45L16.38 13.45Q16.07 13.71 15.82 13.71L15.82 13.71L15.82 13.71Q15.57 13.71 15.40 13.50L15.40 13.50L15.40 13.50Q15.23 13.30 15.16 12.98L15.16 12.98L15.16 12.98Q15.04 12.40 15.04 11.65L15.04 11.65L15.04 11.65Q15.04 10.89 15.20 10.89L15.20 10.89L15.20 10.89Q15.23 10.89 15.35 11.26L15.35 11.26L15.35 11.26Q15.47 11.62 15.72 11.62L15.72 11.62L15.72 11.62Q15.97 11.62 16.10 11.37L16.10 11.37L16.10 11.37Q16.32 10.98 16.53 10.38L16.53 10.38L16.53 10.38Q16.74 9.79 16.74 9.46L16.74 9.46L16.74 9.46Q16.74 9.13 16.44 9.13L16.44 9.13L16.44 9.13Q16.25 9.13 16.03 9.23L16.03 9.23L16.03 9.23Q15.16 9.58 14.88 10.81L14.88 10.81L14.88 10.81Q14.39 12.99 14.39 14.62L14.39 14.62L14.39 14.62Q14.39 15.39 14.48 15.89L14.48 15.89L14.52 16.21L14.52 16.21Q14.52 16.38 14.38 16.53L14.38 16.53L14.38 16.53Q14.24 16.69 14.07 16.69L14.07 16.69L14.07 16.69Q13.62 16.69 13.62 14.59L13.62 14.59L13.62 14.59Q13.62 13.27 14 10.33ZM22.76 11.77L22.76 11.77L22.76 11.77Q22.76 12.88 22.36 13.47L22.36 13.47L22.36 13.47Q22.05 13.86 21.83 13.86L21.83 13.86L21.83 13.86Q21.60 13.86 21.38 13.64L21.38 13.64L21.38 13.64Q20.59 12.73 20.59 11.45L20.59 11.45L20.59 11.45Q20.59 11.03 20.69 10.58L20.69 10.58L20.69 10.58Q20.86 9.81 20.86 9.59L20.86 9.59L20.86 9.59Q20.86 9.37 20.83 9.37L20.83 9.37L20.83 9.37Q20.75 9.37 19.73 13.22L19.73 13.22L19.73 13.22Q19.60 13.61 19.46 13.61L19.46 13.61L19.46 13.61Q19.08 13.61 18.56 12.31L18.56 12.31L18.56 12.31Q18.28 11.69 18.28 10.82L18.28 10.82L18.28 10.82Q18.28 9.84 18.40 9.17L18.40 9.17L18.40 9.17Q18.52 8.50 18.55 8.34L18.55 8.34L18.55 8.34Q18.58 8.18 18.65 7.82L18.65 7.82L18.65 7.82Q18.73 7.46 18.76 7.35L18.76 7.35L18.76 7.35Q18.93 6.65 18.98 6.36L18.98 6.36L18.98 6.36Q18.63 6.36 18.63 6.15L18.63 6.15L18.63 6.15Q18.63 6.05 18.72 5.94L18.72 5.94L18.72 5.94Q19.49 4.72 19.81 3.78L19.81 3.78L19.81 3.78Q19.87 3.54 20.03 3.54L20.03 3.54L20.03 3.54Q20.26 3.54 20.37 3.98L20.37 3.98L20.37 3.98Q20.48 4.41 20.48 4.73L20.48 4.73L20.48 4.73Q20.48 5.54 19.95 6.03L19.95 6.03L19.95 6.03Q19.32 9.94 19.32 10.14L19.32 10.14L19.32 10.14Q19.32 10.33 19.38 10.33L19.38 10.33L19.38 10.33Q19.43 10.33 19.58 10.07L19.58 10.07L19.58 10.07Q19.73 9.81 20.05 9.08L20.05 9.08L20.05 9.08Q20.37 8.34 20.58 7.99L20.58 7.99L20.58 7.99Q20.89 7.48 21.36 7.48L21.36 7.48L21.36 7.48Q22.12 7.48 22.12 8.89L22.12 8.89L22.12 8.89Q22.12 10.04 21.59 11.79L21.59 11.79L21.59 11.79Q21.57 11.84 21.57 11.90L21.57 11.90L21.57 11.90Q21.57 12.05 21.72 12.05L21.72 12.05L21.72 12.05Q21.87 12.05 22.24 11.65L22.24 11.65L22.24 11.65Q22.61 11.24 22.69 11.24L22.69 11.24L22.69 11.24Q22.76 11.24 22.76 11.77ZM25.33 11.89L25.33 11.89L25.28 10.78L25.28 10.78Q25.28 8.15 26.12 5.81L26.12 5.81L26.12 5.81Q25.52 5.74 25.40 5.74L25.40 5.74L25.40 5.74Q24.84 5.74 24.48 5.96L24.48 5.96L24.48 5.96Q24.12 6.17 23.76 6.47L23.76 6.47L23.76 6.47Q23.23 6.92 22.65 6.92L22.65 6.92L22.65 6.92Q22.41 6.92 22.29 6.81L22.29 6.81L22.29 6.81Q22.16 6.71 22.13 6.59L22.13 6.59L22.13 6.59Q22.11 6.48 22.09 6.26L22.09 6.26L22.09 6.26Q22.08 6.03 22.05 5.91L22.05 5.91L22.05 5.91Q22.02 5.78 22.02 5.66L22.02 5.66L22.02 5.66Q22.02 5.53 22.23 5.35L22.23 5.35L22.23 5.35Q23.44 4.28 25.83 4.28L25.83 4.28L25.83 4.28Q26.29 4.28 26.75 4.33L26.75 4.33L26.87 4.07L26.87 4.07Q26.94 4.17 27.05 4.34L27.05 4.34L27.31 4.34L27.31 4.34Q28.63 4.34 30.20 3.81L30.20 3.81L30.20 3.81Q30.31 3.78 30.35 3.78L30.35 3.78L30.35 3.78Q30.58 3.78 30.58 4.02L30.58 4.02L30.58 4.02Q30.58 4.26 30.32 4.51L30.32 4.51L30.32 4.51Q29.08 5.88 27.01 5.85L27.01 5.85L27.01 5.85Q26.66 7.21 26.53 9.17L26.53 9.17L26.53 9.17Q26.40 11.13 26.38 11.40L26.38 11.40L26.38 11.40Q26.35 11.66 26.35 11.86L26.35 11.86L26.35 11.86Q26.35 12.05 26.47 12.63L26.47 12.63L26.47 12.63Q26.60 13.20 26.60 13.29L26.60 13.29L26.60 13.29Q26.60 13.69 26.18 13.69L26.18 13.69L26.18 13.69Q25.54 13.69 24.84 12.26L24.84 12.26L24.84 12.26Q24.70 12.01 24.70 11.78L24.70 11.78L24.70 11.78Q24.70 11.55 24.81 11.55L24.81 11.55L24.81 11.55Q24.92 11.55 25.08 11.77L25.08 11.77L25.08 11.77Q25.24 12.00 25.28 12.00L25.28 12.00L25.28 12.00Q25.33 12.00 25.33 11.89ZM31.79 11.89L31.79 11.89L31.79 11.89Q31.79 14.01 29.64 14.01L29.64 14.01L29.64 14.01Q28.74 14.01 28.33 13.55L28.33 13.55L28.33 13.55Q27.92 13.09 27.61 12.14L27.61 12.14L27.61 12.14Q27.50 11.77 27.50 11.36L27.50 11.36L27.50 11.36Q27.50 10.95 27.87 10.25L27.87 10.25L27.87 10.25Q28.24 9.56 28.69 9.04L28.69 9.04L28.69 9.04Q28.74 8.27 29.04 8.27L29.04 8.27L29.04 8.27Q29.19 8.27 29.25 8.46L29.25 8.46L29.25 8.46Q29.54 8.19 29.96 7.94L29.96 7.94L29.96 7.94Q30.38 7.69 30.72 7.69L30.72 7.69L30.72 7.69Q31.05 7.69 31.41 8.08L31.41 8.08L31.41 8.08Q31.77 8.47 31.77 8.88L31.77 8.88L31.77 8.88Q31.77 9.30 31.19 10.01L31.19 10.01L31.19 10.01Q30.11 11.35 29.50 11.35L29.50 11.35L29.50 11.35Q29.05 11.35 28.80 10.61L28.80 10.61L28.80 10.61Q28.78 10.64 28.66 10.84L28.66 10.84L28.66 10.84Q28.55 11.05 28.50 11.14L28.50 11.14L28.50 11.14Q28.45 11.24 28.36 11.41L28.36 11.41L28.36 11.41Q28.22 11.73 28.22 11.98L28.22 11.98L28.22 11.98Q28.22 12.56 28.80 12.56L28.80 12.56L28.80 12.56Q29.75 12.56 30.41 12.16L30.41 12.16L30.41 12.16Q31.08 11.76 31.74 10.95L31.74 10.95L31.74 10.95Q31.79 11.56 31.79 11.89ZM29.51 10.19L29.51 10.19Q29.74 10.19 30.18 9.65L30.18 9.65L30.18 9.65Q30.62 9.10 30.62 8.90L30.62 8.90L30.62 8.90Q30.62 8.69 30.47 8.69L30.47 8.69L30.47 8.69Q30.32 8.69 29.97 9.06L29.97 9.06L29.97 9.06Q29.61 9.42 29.40 9.69L29.40 9.69L29.40 9.69Q29.37 9.86 29.37 9.94L29.37 9.94L29.37 9.94Q29.37 10.19 29.51 10.19L29.51 10.19ZM35.84 11.47L35.84 11.47L35.84 11.47Q35.84 12.36 35.27 13.20L35.27 13.20L35.27 13.20Q34.69 14.04 33.81 14.04L33.81 14.04L33.81 14.04Q33.11 14.04 32.70 13.20L32.70 13.20L32.70 13.20Q32.28 12.35 32.28 11.40L32.28 11.40L32.28 11.40Q32.28 10.46 32.79 9.34L32.79 9.34L32.79 9.34Q33.31 8.22 34.13 7.55L34.13 7.55L34.13 7.55Q34.31 7.38 34.59 7.38L34.59 7.38L34.59 7.38Q34.87 7.38 35.25 7.70L35.25 7.70L35.25 7.70Q35.45 7.88 35.45 8.46L35.45 8.46L35.45 8.46Q35.45 9.03 35.11 10.25L35.11 10.25L35.11 10.25Q35.03 10.56 34.89 10.56L34.89 10.56L34.89 10.56Q34.62 10.56 34.48 9.06L34.48 9.06L34.48 9.06Q34.47 8.82 34.45 8.76L34.45 8.76L34.45 8.76Q33.77 9.52 33.38 10.48L33.38 10.48L33.38 10.48Q33.00 11.44 33.00 12.33L33.00 12.33L33.00 12.33Q33.00 12.80 33.31 12.80L33.31 12.80L33.31 12.80Q33.84 12.80 34.99 11.84L34.99 11.84L34.99 11.84Q35.20 11.66 35.29 11.57L35.29 11.57L35.29 11.57Q35.39 11.48 35.59 11.30L35.59 11.30L35.59 11.30Q35.78 11.13 35.81 11.10L35.81 11.10L35.81 11.10Q35.84 11.23 35.84 11.47ZM40.71 11.77L40.71 11.77L40.71 11.77Q40.71 12.88 40.31 13.47L40.31 13.47L40.31 13.47Q40.00 13.86 39.77 13.86L39.77 13.86L39.77 13.86Q39.55 13.86 39.33 13.64L39.33 13.64L39.33 13.64Q38.54 12.73 38.54 11.45L38.54 11.45L38.54 11.45Q38.54 11.03 38.64 10.58L38.64 10.58L38.64 10.58Q38.81 9.81 38.81 9.59L38.81 9.59L38.81 9.59Q38.81 9.37 38.78 9.37L38.78 9.37L38.78 9.37Q38.70 9.37 37.67 13.22L37.67 13.22L37.67 13.22Q37.55 13.61 37.41 13.61L37.41 13.61L37.41 13.61Q37.03 13.61 36.51 12.31L36.51 12.31L36.51 12.31Q36.23 11.69 36.23 10.82L36.23 10.82L36.23 10.82Q36.23 9.84 36.35 9.17L36.35 9.17L36.35 9.17Q36.47 8.50 36.50 8.34L36.50 8.34L36.50 8.34Q36.53 8.18 36.60 7.82L36.60 7.82L36.60 7.82Q36.68 7.46 36.71 7.35L36.71 7.35L36.71 7.35Q36.88 6.65 36.93 6.36L36.93 6.36L36.93 6.36Q36.58 6.36 36.58 6.15L36.58 6.15L36.58 6.15Q36.58 6.05 36.67 5.94L36.67 5.94L36.67 5.94Q37.44 4.72 37.76 3.78L37.76 3.78L37.76 3.78Q37.81 3.54 37.98 3.54L37.98 3.54L37.98 3.54Q38.21 3.54 38.32 3.98L38.32 3.98L38.32 3.98Q38.43 4.41 38.43 4.73L38.43 4.73L38.43 4.73Q38.43 5.54 37.90 6.03L37.90 6.03L37.90 6.03Q37.27 9.94 37.27 10.14L37.27 10.14L37.27 10.14Q37.27 10.33 37.32 10.33L37.32 10.33L37.32 10.33Q37.38 10.33 37.53 10.07L37.53 10.07L37.53 10.07Q37.67 9.81 38.00 9.08L38.00 9.08L38.00 9.08Q38.32 8.34 38.53 7.99L38.53 7.99L38.53 7.99Q38.84 7.48 39.31 7.48L39.31 7.48L39.31 7.48Q40.07 7.48 40.07 8.89L40.07 8.89L40.07 8.89Q40.07 10.04 39.54 11.79L39.54 11.79L39.54 11.79Q39.52 11.84 39.52 11.90L39.52 11.90L39.52 11.90Q39.52 12.05 39.67 12.05L39.67 12.05L39.67 12.05Q39.82 12.05 40.19 11.65L40.19 11.65L40.19 11.65Q40.56 11.24 40.63 11.24L40.63 11.24L40.63 11.24Q40.71 11.24 40.71 11.77Z"></path></g><!----><!----></svg>