<svg data-v-423bf9ae="" xmlns="http://www.w3.org/2000/svg" viewBox="0 0 185.7858449883248 60" class="font"><!----><!----><defs data-v-423bf9ae=""><linearGradient data-v-423bf9ae="" gradientTransform="rotate(25)" id="14477e43-0cb6-4a75-8532-34f5171455e8" x1="0%" y1="0%" x2="100%" y2="0%"><stop data-v-423bf9ae="" offset="0%" style="stop-color: rgb(60, 17, 67); stop-opacity: 1;"></stop><stop data-v-423bf9ae="" offset="100%" style="stop-color: rgb(194, 81, 120); stop-opacity: 1;"></stop></linearGradient></defs><g data-v-423bf9ae="" id="567fa77b-a483-4ea6-8995-ce74a3ae167d" fill="url(#14477e43-0cb6-4a75-8532-34f5171455e8)" transform="matrix(3.7570446198971705,0,0,3.7570446198971705,5.673138439573464,-9.693173879020627)"><path d="M0.81 9.62L0.81 9.62Q0.81 9.74 0.26 10.57L0.26 10.57L0.26 10.57Q-0.29 11.40-0.29 11.52L-0.29 11.52L-0.29 11.52Q-0.29 11.65-0.21 11.65L-0.21 11.65L-0.21 11.65Q-0.13 11.65 0.27 11.31L0.27 11.31L0.27 11.31Q0.66 10.98 1.62 10.12L1.62 10.12L1.62 10.12Q2.58 9.27 3.43 8.53L3.43 8.53L3.43 8.53Q4.28 7.78 5.68 6.31L5.68 6.31L5.68 6.31Q7.07 4.84 7.91 3.93L7.91 3.93L7.91 3.93Q8.75 3.02 8.88 3.02L8.88 3.02L8.88 3.02Q9.30 3.02 9.74 3.75L9.74 3.75L9.74 3.75Q10.18 4.48 10.18 4.77L10.18 4.77L10.18 4.77Q10.18 5.07 9.62 6.29L9.62 6.29L9.06 7.52L9.06 7.52Q9.06 7.57 9.09 7.57L9.09 7.57L9.09 7.57Q9.13 7.57 12.50 5.07L12.50 5.07L12.50 5.07Q15.86 2.58 16.24 2.58L16.24 2.58L16.24 2.58Q16.52 2.58 16.79 2.87L16.79 2.87L16.79 2.87Q17.05 3.16 17.05 3.46L17.05 3.46L17.05 3.46Q17.05 3.77 15.48 5.67L15.48 5.67L15.48 5.67Q13.92 7.57 12.34 9.45L12.34 9.45L12.34 9.45Q10.77 11.33 10.77 11.59L10.77 11.59L10.77 11.59Q10.77 11.63 10.84 11.63L10.84 11.63L10.84 11.63Q10.91 11.63 11.16 11.42L11.16 11.42L11.16 11.42Q11.41 11.20 11.58 11.20L11.58 11.20L11.58 11.20Q11.87 11.20 11.87 11.47L11.87 11.47L11.87 11.47Q11.87 11.75 11.19 12.35L11.19 12.35L11.19 12.35Q10.50 12.95 9.44 13.50L9.44 13.50L9.44 13.50Q8.39 14.04 7.63 14.04L7.63 14.04L7.63 14.04Q6.87 14.04 6.59 13.71L6.59 13.71L6.59 13.71Q6.30 13.38 6.30 12.89L6.30 12.89L6.30 12.89Q6.30 12.11 7.36 10.74L7.36 10.74L7.36 10.74Q8.41 9.37 9.24 8.74L9.24 8.74L9.24 8.74Q9.31 8.67 9.31 8.63L9.31 8.63L9.31 8.63Q9.31 8.60 9.27 8.60L9.27 8.60L9.27 8.60Q9.13 8.60 7.78 9.79L7.78 9.79L7.78 9.79Q3.78 13.33 3.23 13.33L3.23 13.33L3.23 13.33Q3.04 13.33 2.77 13.02L2.77 13.02L2.77 13.02Q2.51 12.71 2.51 12.54L2.51 12.54L2.51 12.54Q2.51 11.83 3.86 9.67L3.86 9.67L3.86 9.67Q4.31 8.97 4.31 8.95L4.31 8.95L4.27 8.92L4.27 8.92Q4.24 8.92 4.20 8.96L4.20 8.96L2.84 10.29L2.84 10.29Q-0.34 13.40-1.12 13.40L-1.12 13.40L-1.12 13.40Q-1.51 13.40-1.51 12.73L-1.51 12.73L-1.51 12.73Q-1.51 12.07-0.78 10.66L-0.78 10.66L-0.78 10.66Q-0.04 9.25 0.45 9.25L0.45 9.25L0.45 9.25Q0.81 9.25 0.81 9.62L0.81 9.62ZM11.66 13.08L11.66 13.08Q11.66 13.38 11.87 13.59L11.87 13.59L11.87 13.59Q12.08 13.79 12.42 13.79L12.42 13.79L12.42 13.79Q12.75 13.79 13.57 12.98L13.57 12.98L13.57 12.98Q14.38 12.17 15.01 11.28L15.01 11.28L15.01 11.28Q15.64 10.40 15.64 10.16L15.64 10.16L15.64 10.16Q15.64 9.42 15.01 9.42L15.01 9.42L15.01 9.42Q14 9.60 12.83 10.85L12.83 10.85L12.83 10.85Q11.66 12.10 11.66 13.08L11.66 13.08ZM15.89 8.97L15.89 8.97L15.89 8.97Q15.65 8.97 15.51 8.81L15.51 8.81L15.51 8.81Q15.37 8.64 15.34 8.47L15.34 8.47L15.33 8.32L15.33 8.32Q15.40 7.64 15.93 7.29L15.93 7.29L15.93 7.29Q16.46 6.94 16.86 6.94L16.86 6.94L16.86 6.94Q17.43 6.94 17.43 7.52L17.43 7.52L17.43 7.52Q17.43 7.88 17.00 8.39L17.00 8.39L17.00 8.39Q16.56 8.90 15.89 8.97ZM12.15 17.54L12.15 17.54L12.15 17.54Q12.15 16.87 12.82 15.62L12.82 15.62L12.82 15.62Q13.48 14.38 14.42 13.06L14.42 13.06L14.42 13.06Q16.44 10.29 17.92 8.55L17.92 8.55L18.58 7.78L18.58 7.78Q18.79 7.59 19.00 7.59L19.00 7.59L19.00 7.59Q19.21 7.59 19.31 7.74L19.31 7.74L19.31 7.74Q19.40 7.90 19.40 8.02L19.40 8.02L19.40 8.02Q19.40 8.13 19.24 8.54L19.24 8.54L19.24 8.54Q19.08 8.95 18.86 9.47L18.86 9.47L18.86 9.47Q18.63 10.00 18.61 10.04L18.61 10.04L18.61 10.04Q18.59 10.09 18.59 10.15L18.59 10.15L18.59 10.15Q18.59 10.21 18.68 10.21L18.68 10.21L18.68 10.21Q18.77 10.21 19.12 9.90L19.12 9.90L19.12 9.90Q20.20 8.97 20.75 8.97L20.75 8.97L20.75 8.97Q21.74 8.97 21.74 9.98L21.74 9.98L21.74 9.98Q21.67 10.50 21.11 11.33L21.11 11.33L21.11 11.33Q20.55 12.15 19.71 12.83L19.71 12.83L19.71 12.83Q18.86 13.51 18.14 13.51L18.14 13.51L18.14 13.51Q17.84 13.51 17.61 13.36L17.61 13.36L17.61 13.36Q17.39 13.20 17.28 13.05L17.28 13.05L17.28 13.05Q17.16 12.89 17.13 12.89L17.13 12.89L17.13 12.89Q17.09 12.89 17.05 12.96L17.05 12.96L17.05 12.96Q17.00 13.03 14.32 17.44L14.32 17.44L14.32 17.44Q13.62 18.55 12.95 18.55L12.95 18.55L12.95 18.55Q12.60 18.55 12.38 18.23L12.38 18.23L12.38 18.23Q12.15 17.92 12.15 17.54ZM20.08 9.93L20.08 9.93L20.08 9.93Q19.73 9.93 18.60 11.02L18.60 11.02L18.60 11.02Q17.47 12.11 17.47 12.39L17.47 12.39L17.47 12.39Q17.47 12.42 17.53 12.42L17.53 12.42L17.53 12.42Q18.06 12.42 19.12 11.42L19.12 11.42L19.12 11.42Q20.19 10.42 20.19 10.01L20.19 10.01L20.19 10.01Q20.19 9.93 20.08 9.93ZM27.60 12.77L27.60 12.77L27.60 12.77Q27.10 13.15 26.41 13.50L26.41 13.50L26.41 13.50Q25.72 13.85 25.25 13.85L25.25 13.85L25.25 13.85Q24.78 13.85 24.50 13.57L24.50 13.57L24.50 13.57Q24.22 13.29 24.22 12.88L24.22 12.88L24.22 12.88Q24.22 12.21 25.19 11.07L25.19 11.07L25.19 11.07Q25.27 10.99 25.27 10.94L25.27 10.94L25.27 10.94Q25.27 10.89 25.24 10.89L25.24 10.89L25.24 10.89Q25.21 10.89 25.04 10.96L25.04 10.96L25.04 10.96Q24.86 11.02 24.08 11.60L24.08 11.60L24.08 11.60Q23.30 12.18 22.55 12.83L22.55 12.83L22.55 12.83Q21.81 13.48 21.50 13.48L21.50 13.48L21.50 13.48Q21.18 13.48 21.04 13.22L21.04 13.22L21.04 13.22Q20.89 12.95 20.89 12.61L20.89 12.61L20.89 12.61Q20.89 11.58 22.51 9.46L22.51 9.46L22.51 9.46Q24.12 7.35 25.89 5.69L25.89 5.69L25.89 5.69Q27.65 4.03 28.14 4.03L28.14 4.03L28.14 4.03Q28.38 4.03 28.59 4.23L28.59 4.23L28.59 4.23Q28.81 4.44 28.81 4.78L28.81 4.78L28.81 4.78Q28.81 5.12 27.97 6.30L27.97 6.30L27.97 6.30Q27.13 7.48 26.10 8.78L26.10 8.78L26.10 8.78Q24.79 10.40 24.79 10.54L24.79 10.54L24.79 10.54Q24.79 10.60 24.85 10.60L24.85 10.60L24.85 10.60Q24.91 10.60 25.33 10.37L25.33 10.37L25.33 10.37Q25.75 10.14 26.24 9.93L26.24 9.93L26.24 9.93Q26.73 9.73 26.91 9.70L26.91 9.70L26.91 9.70Q27.10 9.66 27.36 9.66L27.36 9.66L27.36 9.66Q27.62 9.66 27.88 9.77L27.88 9.77L27.88 9.77Q28.14 9.88 28.14 10.10L28.14 10.10L28.14 10.10Q28.14 10.32 27.13 11.49L27.13 11.49L27.13 11.49Q26.11 12.66 26.11 12.82L26.11 12.82L26.11 12.82Q26.11 12.98 26.25 12.98L26.25 12.98L26.25 12.98Q26.54 12.98 27.40 12.36L27.40 12.36L27.40 12.36Q27.72 12.14 27.78 12.11L27.78 12.11L27.78 12.11Q27.83 12.08 27.90 12.08L27.90 12.08L27.90 12.08Q28.10 12.08 28.10 12.28L28.10 12.28L28.10 12.28Q28.10 12.39 27.60 12.77ZM38.47 4.55L38.47 4.55L38.47 4.55Q38.47 4.97 35.59 5.96L35.59 5.96L35.59 5.96Q32.70 6.96 31.99 6.99L31.99 6.99L31.99 6.99Q32.41 7.04 32.41 7.34L32.41 7.34L32.41 7.34Q32.41 7.52 32.02 7.97L32.02 7.97L32.02 7.97Q31.64 8.43 30.20 10.18L30.20 10.18L30.20 10.18Q30.13 10.29 28.76 12.06L28.76 12.06L28.76 12.06Q27.38 13.83 27.29 13.93L27.29 13.93L27.29 13.93Q26.91 14.31 26.73 14.31L26.73 14.31L26.73 14.31Q26.56 14.31 26.39 14.19L26.39 14.19L26.39 14.19Q26.22 14.07 26.22 13.86L26.22 13.86L26.22 13.86Q26.22 13.36 26.89 12.36L26.89 12.36L26.89 12.36Q27.57 11.35 28.24 10.60L28.24 10.60L28.92 9.86L28.92 9.86Q29.96 8.68 31.35 7.29L31.35 7.29L31.35 7.29Q31.54 7.11 31.61 7.07L31.61 7.07L31.61 7.07Q29.86 7.48 29.02 7.48L29.02 7.48L29.02 7.48Q28.18 7.48 27.50 6.95L27.50 6.95L27.50 6.95Q26.82 6.43 26.82 5.80L26.82 5.80L26.82 5.80Q26.82 5.18 27.98 4.36L27.98 4.36L27.98 4.36Q29.13 3.54 29.50 3.54L29.50 3.54L29.50 3.54Q29.86 3.54 29.86 3.79L29.86 3.79L29.86 3.79Q29.86 3.92 29.56 4.18L29.56 4.18L29.56 4.18Q29.26 4.44 29.14 4.49L29.14 4.49L29.14 4.49Q29.02 4.54 29.02 4.61L29.02 4.61L29.02 4.61Q29.02 4.68 29.12 4.68L29.12 4.68L29.12 4.68Q29.22 4.68 30.58 4.28L30.58 4.28L30.58 4.28Q31.95 3.88 33.71 3.48L33.71 3.48L33.71 3.48Q35.48 3.08 36.54 3.08L36.54 3.08L36.54 3.08Q37.02 3.08 37.74 3.51L37.74 3.51L37.74 3.51Q38.47 3.95 38.47 4.55ZM33.15 10.71L33.15 10.71L33.84 10.64L33.84 10.64Q34.31 10.64 34.31 11.12L34.31 11.12L34.31 11.12Q34.31 11.37 33.85 11.68L33.85 11.68L33.85 11.68Q33.39 11.98 32.92 12.24L32.92 12.24L32.92 12.24Q32.45 12.50 32.45 12.64L32.45 12.64L32.45 12.64Q32.45 12.74 32.68 12.77L32.68 12.77L32.68 12.77Q33.17 12.77 34.54 11.98L34.54 11.98L34.54 11.98Q35.91 11.20 36.01 11.20L36.01 11.20L36.01 11.20Q36.20 11.20 36.20 11.40L36.20 11.40L36.20 11.40Q36.19 11.54 35.31 12.09L35.31 12.09L35.31 12.09Q34.44 12.64 33.27 13.15L33.27 13.15L33.27 13.15Q32.10 13.66 31.49 13.66L31.49 13.66L31.49 13.66Q30.52 13.66 30.52 12.64L30.52 12.64L30.52 12.64Q30.52 12.35 30.92 12.00L30.92 12.00L30.92 12.00Q31.32 11.65 31.72 11.40L31.72 11.40L31.72 11.40Q32.12 11.14 32.12 11.08L32.12 11.08L32.12 11.08Q32.12 11.02 31.92 10.93L31.92 10.93L31.92 10.93Q31.33 10.68 31.33 10.26L31.33 10.26L31.33 10.26Q31.33 9.48 32.64 8.77L32.64 8.77L32.64 8.77Q33.95 8.06 35.07 8.06L35.07 8.06L35.07 8.06Q35.69 8.06 36.09 8.29L36.09 8.29L36.09 8.29Q36.50 8.53 36.50 9.00L36.50 9.00L36.50 9.00Q36.50 9.46 35.85 9.87L35.85 9.87L35.85 9.87Q35.20 10.28 34.92 10.28L34.92 10.28L34.92 10.28Q34.80 10.28 34.71 10.22L34.71 10.22L34.71 10.22Q34.62 10.16 34.62 10.09L34.62 10.09L34.62 10.09Q34.62 10.02 35.01 9.86L35.01 9.86L35.01 9.86Q35.39 9.70 35.39 9.56L35.39 9.56L35.39 9.56Q35.39 9.49 35.19 9.49L35.19 9.49L35.19 9.49Q34.99 9.49 33.87 9.93L33.87 9.93L33.87 9.93Q32.75 10.37 32.75 10.56L32.75 10.56L32.75 10.56Q32.75 10.71 33.15 10.71ZM40.96 11.21L40.96 11.21L40.96 11.21Q40.95 11.35 40.05 11.95L40.05 11.95L40.05 11.95Q39.16 12.54 37.98 13.10L37.98 13.10L37.98 13.10Q36.81 13.66 36.30 13.66L36.30 13.66L36.30 13.66Q35.78 13.66 35.42 13.35L35.42 13.35L35.42 13.35Q35.06 13.03 35.06 12.63L35.06 12.63L35.06 12.63Q35.06 11.79 35.80 10.90L35.80 10.90L35.80 10.90Q36.55 10.01 37.54 9.46L37.54 9.46L37.54 9.46Q38.53 8.90 39.22 8.90L39.22 8.90L39.22 8.90Q39.91 8.90 40.26 9.08L40.26 9.08L40.26 9.08Q40.61 9.25 40.61 9.73L40.61 9.73L40.61 9.73Q40.61 10.21 40.00 10.83L40.00 10.83L40.00 10.83Q39.40 11.45 38.96 11.45L38.96 11.45L38.96 11.45Q38.68 11.45 38.68 11.28L38.68 11.28L38.68 11.28Q38.68 11.17 38.82 11.09L38.82 11.09L38.82 11.09Q38.98 11.00 39.31 10.70L39.31 10.70L39.31 10.70Q39.65 10.39 39.65 10.28L39.65 10.28L39.65 10.28Q39.65 10.23 39.56 10.23L39.56 10.23L39.56 10.23Q39.07 10.23 38.18 11.13L38.18 11.13L38.18 11.13Q37.28 12.03 37.28 12.47L37.28 12.47L37.28 12.47Q37.28 12.70 37.53 12.70L37.53 12.70L37.53 12.70Q37.77 12.70 38.32 12.41L38.32 12.41L38.32 12.41Q38.86 12.12 39.66 11.63L39.66 11.63L39.66 11.63Q40.46 11.14 40.58 11.08L40.58 11.08L40.58 11.08Q40.70 11.02 40.77 11.02L40.77 11.02L40.77 11.02Q40.96 11.02 40.96 11.21ZM46.72 12.77L46.72 12.77L46.72 12.77Q46.23 13.15 45.53 13.50L45.53 13.50L45.53 13.50Q44.84 13.85 44.37 13.85L44.37 13.85L44.37 13.85Q43.90 13.85 43.62 13.57L43.62 13.57L43.62 13.57Q43.34 13.29 43.34 12.88L43.34 12.88L43.34 12.88Q43.34 12.21 44.31 11.07L44.31 11.07L44.31 11.07Q44.39 10.99 44.39 10.94L44.39 10.94L44.39 10.94Q44.39 10.89 44.37 10.89L44.37 10.89L44.37 10.89Q44.34 10.89 44.16 10.96L44.16 10.96L44.16 10.96Q43.99 11.02 43.20 11.60L43.20 11.60L43.20 11.60Q42.42 12.18 41.68 12.83L41.68 12.83L41.68 12.83Q40.94 13.48 40.62 13.48L40.62 13.48L40.62 13.48Q40.31 13.48 40.16 13.22L40.16 13.22L40.16 13.22Q40.01 12.95 40.01 12.61L40.01 12.61L40.01 12.61Q40.01 11.58 41.63 9.46L41.63 9.46L41.63 9.46Q43.25 7.35 45.01 5.69L45.01 5.69L45.01 5.69Q46.77 4.03 47.26 4.03L47.26 4.03L47.26 4.03Q47.50 4.03 47.72 4.23L47.72 4.23L47.72 4.23Q47.94 4.44 47.94 4.78L47.94 4.78L47.94 4.78Q47.94 5.12 47.10 6.30L47.10 6.30L47.10 6.30Q46.26 7.48 45.22 8.78L45.22 8.78L45.22 8.78Q43.92 10.40 43.92 10.54L43.92 10.54L43.92 10.54Q43.92 10.60 43.97 10.60L43.97 10.60L43.97 10.60Q44.03 10.60 44.45 10.37L44.45 10.37L44.45 10.37Q44.87 10.14 45.36 9.93L45.36 9.93L45.36 9.93Q45.85 9.73 46.04 9.70L46.04 9.70L46.04 9.70Q46.23 9.66 46.49 9.66L46.49 9.66L46.49 9.66Q46.75 9.66 47.00 9.77L47.00 9.77L47.00 9.77Q47.26 9.88 47.26 10.10L47.26 10.10L47.26 10.10Q47.26 10.32 46.25 11.49L46.25 11.49L46.25 11.49Q45.23 12.66 45.23 12.82L45.23 12.82L45.23 12.82Q45.23 12.98 45.37 12.98L45.37 12.98L45.37 12.98Q45.67 12.98 46.52 12.36L46.52 12.36L46.52 12.36Q46.84 12.14 46.90 12.11L46.90 12.11L46.90 12.11Q46.96 12.08 47.03 12.08L47.03 12.08L47.03 12.08Q47.22 12.08 47.22 12.28L47.22 12.28L47.22 12.28Q47.22 12.39 46.72 12.77Z"></path></g><!----><!----></svg>